HIERARCHY
ROOT mixamorig:Hips
{
	OFFSET 0.000000 93.996948 0.000004
	CHANNELS 6 Xposition Yposition Zposition Xrotation Yrotation Zrotation
	JOINT mixamorig:Spine
	{
		OFFSET 0.000000 12.994652 -0.000000
		CHANNELS 6 Xposition Yposition Zposition Xrotation Yrotation Zrotation
		JOINT mixamorig:Spine1
		{
			OFFSET 0.000000 12.666664 0.000001
			CHANNELS 6 Xposition Yposition Zposition Xrotation Yrotation Zrotation
			JOINT mixamorig:Spine2
			{
				OFFSET -0.000000 12.666656 0.000001
				CHANNELS 6 Xposition Yposition Zposition Xrotation Yrotation Zrotation
				JOINT mixamorig:LeftShoulder
				{
					OFFSET 6.999992 10.364258 1.903785
					CHANNELS 6 Xposition Yposition Zposition Xrotation Yrotation Zrotation
					JOINT mixamorig:LeftArm
					{
						OFFSET 13.607773 0.000000 0.000001
						CHANNELS 3 Xrotation Yrotation Zrotation
						JOINT mixamorig:LeftForeArm
						{
							OFFSET 27.102146 -0.000031 0.000078
							CHANNELS 6 Xposition Yposition Zposition Xrotation Yrotation Zrotation
							JOINT mixamorig:LeftHand
							{
								OFFSET 28.226727 -0.000046 0.000120
								CHANNELS 6 Xposition Yposition Zposition Xrotation Yrotation Zrotation
								JOINT mixamorig:LeftHandIndex1
								{
									OFFSET 8.050400 -0.094543 2.543380
									CHANNELS 6 Xposition Yposition Zposition Xrotation Yrotation Zrotation
									JOINT mixamorig:LeftHandIndex2
									{
										OFFSET 4.499985 0.000000 0.000008
										CHANNELS 3 Xrotation Yrotation Zrotation
										JOINT mixamorig:LeftHandIndex3
										{
											OFFSET 2.768486 -0.000015 -0.000012
											CHANNELS 6 Xposition Yposition Zposition Xrotation Yrotation Zrotation
											End Site
											{
												OFFSET 2.768494 0.000061 -0.000035
											}
										}
									}
								}
								JOINT mixamorig:LeftHandMiddle1
								{
									OFFSET 8.205635 -0.094559 0.544589
									CHANNELS 6 Xposition Yposition Zposition Xrotation Yrotation Zrotation
									JOINT mixamorig:LeftHandMiddle2
									{
										OFFSET 4.699982 0.000031 0.000007
										CHANNELS 3 Xrotation Yrotation Zrotation
										JOINT mixamorig:LeftHandMiddle3
										{
											OFFSET 3.099998 0.000000 -0.000003
											CHANNELS 6 Xposition Yposition Zposition Xrotation Yrotation Zrotation
											End Site
											{
												OFFSET 3.099991 0.000015 0.000005
											}
										}
									}
								}
								JOINT mixamorig:LeftHandPinky1
								{
									OFFSET 7.021164 -0.094574 -3.111078
									CHANNELS 6 Xposition Yposition Zposition Xrotation Yrotation Zrotation
									JOINT mixamorig:LeftHandPinky2
									{
										OFFSET 3.499992 -0.000015 -0.000003
										CHANNELS 6 Xposition Yposition Zposition Xrotation Yrotation Zrotation
										JOINT mixamorig:LeftHandPinky3
										{
											OFFSET 2.199982 0.000015 0.000009
											CHANNELS 3 Xrotation Yrotation Zrotation
											End Site
											{
												OFFSET 2.199989 0.000000 0.000013
											}
										}
									}
								}
								JOINT mixamorig:LeftHandRing1
								{
									OFFSET 7.772285 -0.094604 -1.421571
									CHANNELS 6 Xposition Yposition Zposition Xrotation Yrotation Zrotation
									JOINT mixamorig:LeftHandRing2
									{
										OFFSET 4.300003 0.000000 0.000006
										CHANNELS 3 Xrotation Yrotation Zrotation
										JOINT mixamorig:LeftHandRing3
										{
											OFFSET 2.773186 -0.000015 0.000001
											CHANNELS 6 Xposition Yposition Zposition Xrotation Yrotation Zrotation
											End Site
											{
												OFFSET 2.773193 0.000046 0.000004
											}
										}
									}
								}
								JOINT mixamorig:LeftHandThumb1
								{
									OFFSET 2.151253 -0.094543 2.784745
									CHANNELS 6 Xposition Yposition Zposition Xrotation Yrotation Zrotation
									JOINT mixamorig:LeftHandThumb2
									{
										OFFSET 3.454651 -0.000015 1.994560
										CHANNELS 6 Xposition Yposition Zposition Xrotation Yrotation Zrotation
										JOINT mixamorig:LeftHandThumb3
										{
											OFFSET 3.027802 -0.000046 0.000018
											CHANNELS 3 Xrotation Yrotation Zrotation
											End Site
											{
												OFFSET 3.027802 -0.000046 0.000012
											}
										}
									}
								}
							}
						}
					}
				}
				JOINT mixamorig:Neck
				{
					OFFSET -0.000013 18.093918 -0.000010
					CHANNELS 6 Xposition Yposition Zposition Xrotation Yrotation Zrotation
					JOINT mixamorig:Head
					{
						OFFSET 0.000000 11.149841 0.000000
						CHANNELS 3 Xrotation Yrotation Zrotation
						End Site
						{
							OFFSET 0.000000 11.149841 0.000000
						}
					}
				}
				JOINT mixamorig:RightShoulder
				{
					OFFSET -7.000004 10.364258 1.903772
					CHANNELS 6 Xposition Yposition Zposition Xrotation Yrotation Zrotation
					JOINT mixamorig:RightArm
					{
						OFFSET -13.607773 -0.000015 0.000001
						CHANNELS 3 Xrotation Yrotation Zrotation
						JOINT mixamorig:RightForeArm
						{
							OFFSET -27.102154 -0.000046 -0.000013
							CHANNELS 6 Xposition Yposition Zposition Xrotation Yrotation Zrotation
							JOINT mixamorig:RightHand
							{
								OFFSET -28.299980 -0.000061 -0.000095
								CHANNELS 6 Xposition Yposition Zposition Xrotation Yrotation Zrotation
								JOINT mixamorig:RightHandIndex1
								{
									OFFSET -7.977158 -0.094589 2.543477
									CHANNELS 6 Xposition Yposition Zposition Xrotation Yrotation Zrotation
									JOINT mixamorig:RightHandIndex2
									{
										OFFSET -4.499977 0.000015 -0.000009
										CHANNELS 6 Xposition Yposition Zposition Xrotation Yrotation Zrotation
										JOINT mixamorig:RightHandIndex3
										{
											OFFSET -2.768494 -0.000015 -0.000003
											CHANNELS 6 Xposition Yposition Zposition Xrotation Yrotation Zrotation
											End Site
											{
												OFFSET -2.768494 0.000031 0.000018
											}
										}
									}
								}
								JOINT mixamorig:RightHandMiddle1
								{
									OFFSET -8.132370 -0.094589 0.544699
									CHANNELS 6 Xposition Yposition Zposition Xrotation Yrotation Zrotation
									JOINT mixamorig:RightHandMiddle2
									{
										OFFSET -4.699997 0.000015 -0.000005
										CHANNELS 6 Xposition Yposition Zposition Xrotation Yrotation Zrotation
										JOINT mixamorig:RightHandMiddle3
										{
											OFFSET -3.099991 -0.000015 -0.000005
											CHANNELS 6 Xposition Yposition Zposition Xrotation Yrotation Zrotation
											End Site
											{
												OFFSET -3.099991 0.000000 0.000004
											}
										}
									}
								}
								JOINT mixamorig:RightHandPinky1
								{
									OFFSET -6.947868 -0.094559 -3.110968
									CHANNELS 6 Xposition Yposition Zposition Xrotation Yrotation Zrotation
									JOINT mixamorig:RightHandPinky2
									{
										OFFSET -3.499992 -0.000031 -0.000005
										CHANNELS 6 Xposition Yposition Zposition Xrotation Yrotation Zrotation
										JOINT mixamorig:RightHandPinky3
										{
											OFFSET -2.199989 0.000015 -0.000008
											CHANNELS 6 Xposition Yposition Zposition Xrotation Yrotation Zrotation
											End Site
											{
												OFFSET -2.199997 0.000046 0.000018
											}
										}
									}
								}
								JOINT mixamorig:RightHandRing1
								{
									OFFSET -7.699020 -0.094574 -1.421472
									CHANNELS 6 Xposition Yposition Zposition Xrotation Yrotation Zrotation
									JOINT mixamorig:RightHandRing2
									{
										OFFSET -4.300011 0.000000 -0.000002
										CHANNELS 6 Xposition Yposition Zposition Xrotation Yrotation Zrotation
										JOINT mixamorig:RightHandRing3
										{
											OFFSET -2.773163 -0.000015 -0.000007
											CHANNELS 6 Xposition Yposition Zposition Xrotation Yrotation Zrotation
											End Site
											{
												OFFSET -2.773163 0.000031 0.000001
											}
										}
									}
								}
								JOINT mixamorig:RightHandThumb1
								{
									OFFSET -2.077988 -0.094543 2.784874
									CHANNELS 6 Xposition Yposition Zposition Xrotation Yrotation Zrotation
									JOINT mixamorig:RightHandThumb2
									{
										OFFSET -3.454681 -0.000015 1.994533
										CHANNELS 3 Xrotation Yrotation Zrotation
										JOINT mixamorig:RightHandThumb3
										{
											OFFSET -3.027779 -0.000015 0.000008
											CHANNELS 3 Xrotation Yrotation Zrotation
											End Site
											{
												OFFSET -3.027786 0.000015 0.000006
											}
										}
									}
								}
							}
						}
					}
				}
			}
		}
	}
	JOINT mixamorig:LeftUpLeg
	{
		OFFSET 8.099949 0.000000 0.000000
		CHANNELS 6 Xposition Yposition Zposition Xrotation Yrotation Zrotation
		JOINT mixamorig:LeftLeg
		{
			OFFSET -0.000013 -43.199978 0.000038
			CHANNELS 6 Xposition Yposition Zposition Xrotation Yrotation Zrotation
			JOINT mixamorig:LeftFoot
			{
				OFFSET 0.062409 -43.299969 0.000052
				CHANNELS 3 Xrotation Yrotation Zrotation
				JOINT mixamorig:LeftToeBase
				{
					OFFSET -0.000006 -6.239403 13.169413
					CHANNELS 6 Xposition Yposition Zposition Xrotation Yrotation Zrotation
					End Site
					{
						OFFSET 0.000003 0.000088 14.572700
					}
				}
			}
		}
	}
	JOINT mixamorig:RightUpLeg
	{
		OFFSET -8.099949 0.000000 -0.000000
		CHANNELS 6 Xposition Yposition Zposition Xrotation Yrotation Zrotation
		JOINT mixamorig:RightLeg
		{
			OFFSET 0.000005 -43.200005 0.000037
			CHANNELS 6 Xposition Yposition Zposition Xrotation Yrotation Zrotation
			JOINT mixamorig:RightFoot
			{
				OFFSET -0.062555 -43.299992 0.000030
				CHANNELS 3 Xrotation Yrotation Zrotation
				JOINT mixamorig:RightToeBase
				{
					OFFSET -0.000008 -6.239427 13.169404
					CHANNELS 3 Xrotation Yrotation Zrotation
					End Site
					{
						OFFSET -0.000019 0.000005 14.572704
					}
				}
			}
		}
	}
}
MOTION
Frames: 4
Frame Time: 0.041667
0.000000 89.029144 0.000000 -0.000005 0.000000 -0.000000 -0.000002 12.546089 0.000001 -0.000000 -0.000000 -0.000000 -0.000001 12.308357 0.000002 -0.000000 -0.000000 -0.000000 -0.000001 11.703339 0.000005 -0.000000 -0.000000 -0.000000 6.667785 9.777283 0.000001 0.000003 0.000005 -0.000003 0.000000 -0.000000 0.000000 23.150318 0.000031 0.000067 0.000000 0.000000 -0.000000 25.491985 0.000031 -0.000007 0.000000 -0.000000 -0.000000 7.221771 -0.092102 2.290836 0.000000 -0.000001 0.000000 0.000000 0.000000 0.000000 2.520580 0.000064 -0.000008 -0.000003 0.000008 0.000002 7.277762 -0.092112 0.487470 0.000007 -0.000001 0.000004 0.000000 -0.000000 -0.000003 2.774202 0.000050 -0.000003 0.000000 -0.000000 -0.000007 6.277330 -0.092134 -2.805718 0.000002 0.000085 -0.000001 3.178916 0.000058 0.000003 0.000000 -0.000090 -0.000002 -0.000002 0.000659 -0.000000 6.982758 -0.092148 -1.288437 0.000000 0.000004 0.000000 -0.000000 0.000003 -0.000000 2.533663 0.000010 0.000000 -0.000005 0.000181 -0.000003 1.859597 -0.083721 2.492222 -0.000004 0.000003 0.000003 3.068986 -0.000000 1.771884 0.000146 0.000032 0.000001 -0.000003 -0.000003 -0.000003 -0.000015 17.137619 -0.000006 -0.000000 -0.000000 -0.000000 -0.000000 -0.000000 -0.000000 -6.667801 9.777269 0.000001 0.000003 -0.000005 -0.000014 -0.000000 0.000000 -0.000000 -23.150337 0.000015 -0.000009 0.000000 -0.000000 0.000000 -25.491943 -0.000015 -0.000085 0.000000 0.000000 0.000000 -7.221796 -0.092152 2.290812 0.000000 -0.000229 0.000003 -4.097054 0.000046 0.000010 -0.000000 -0.000000 0.000000 -2.520614 0.000027 0.000005 -0.000000 -0.000517 0.000002 -7.277780 -0.092134 0.487455 0.000005 -0.000133 0.000001 -4.206070 0.000031 0.000006 -0.000000 -0.000000 0.000000 -2.774216 0.000031 0.000002 -0.000000 -0.000000 0.000000 -6.277339 -0.092147 -2.805736 0.000002 -0.000163 -0.000000 -3.178904 -0.000017 0.000005 0.000002 -0.000248 -0.000009 -1.998161 0.000029 0.000007 -0.000000 -0.000531 0.000001 -6.982779 -0.092116 -1.288466 0.000002 -0.000054 -0.000001 -3.928635 -0.000000 0.000002 0.000000 -0.000000 0.000000 -2.533665 -0.000023 -0.000003 0.000002 -0.000005 -0.000005 -1.859602 -0.083667 2.492234 -0.000002 -0.000002 0.000002 -0.000070 -0.000017 -0.000003 0.000005 0.000012 0.000002 7.671661 -0.000001 -0.000000 -0.000000 0.000000 -0.000008 -0.000021 -40.915501 0.000027 0.000000 0.000000 0.000000 0.000007 -0.000000 -0.000000 -0.000025 -5.909506 12.473000 0.000007 0.000000 0.000000 -7.671661 -0.000000 -0.000000 0.000000 0.000000 0.000003 -0.000007 -40.915516 0.000027 0.000000 0.000000 -0.000000 -0.000000 0.000000 -0.000000 0.000006 0.000000 0.000000 
24.875046 77.823235 -112.740868 -7.971880 -19.336554 -0.223610 -0.000001 12.546096 0.000002 7.905176 -2.425263 0.905753 -0.000005 12.308364 0.000003 7.947339 -2.437786 0.911456 0.000002 11.703322 0.000009 7.929146 -2.432378 0.908995 6.667790 9.777304 -0.000005 -12.081573 3.268205 7.350954 -39.645741 -18.342944 -93.538143 23.150303 0.000013 0.000087 61.103200 -107.240903 50.476969 25.491982 0.000002 -0.000005 39.512132 -17.782625 13.995125 7.221768 -0.092132 2.290831 3.212909 -0.545077 -84.739165 0.000021 -0.000127 -76.592744 2.520612 0.000012 -0.000005 0.000044 -0.000077 -51.500559 7.277751 -0.092139 0.487473 4.451290 9.866474 -93.165146 -0.000058 -0.000199 -82.884537 2.774238 0.000006 -0.000013 0.000043 -0.000183 -55.815988 6.277331 -0.092176 -2.805732 9.410877 27.294187 -93.559084 3.178924 0.000002 -0.000009 -0.000272 -0.000235 -74.567573 0.000555 0.000377 -50.115769 6.982755 -0.092195 -1.288444 4.932489 18.057183 -98.589887 0.000063 -0.000156 -83.575417 2.533669 0.000006 0.000001 0.000216 -0.000005 -56.291175 1.859584 -0.083716 2.492218 63.869946 -40.848322 -4.482034 3.068995 -0.000016 1.771869 -4.479016 20.157329 -13.893663 4.062750 20.603617 -22.083436 -0.000019 17.137606 -0.000007 6.067167 -2.895330 -4.546575 6.067161 -2.895336 -4.546574 -6.667805 9.777287 -0.000005 -7.426723 0.323237 -8.821037 -61.166175 9.439210 96.814393 -23.150330 -0.000000 -0.000006 13.370680 119.837991 -6.004905 -25.491949 -0.000027 -0.000083 34.038951 0.063799 10.666986 -7.221781 -0.092146 2.290821 -2.133225 2.113502 80.014771 -4.097055 0.000010 0.000010 0.000063 0.000227 76.031111 -2.520613 0.000032 -0.000004 0.000472 -0.000182 51.116330 -7.277763 -0.092157 0.487456 -0.785884 -10.463190 90.593744 -4.206069 0.000020 0.000005 -0.000019 0.000116 79.416092 -2.774227 0.000022 0.000012 0.000013 0.000089 53.434554 -6.277323 -0.092157 -2.805726 0.891605 -36.160763 98.311311 -3.178901 -0.000010 -0.000002 0.000238 -0.000013 58.315370 -1.998140 0.000026 0.000006 0.000520 -0.000284 39.067487 -6.982783 -0.092117 -1.288464 -0.157965 -23.775791 94.433260 -3.928598 0.000003 0.000009 -0.000103 0.000058 79.277282 -2.533672 -0.000030 -0.000007 -0.000076 0.000054 53.339358 -1.859593 -0.083688 2.492249 34.025608 29.538365 28.133073 -2.300983 -2.234824 7.592422 1.518467 -12.962458 13.307585 7.671659 0.000001 -0.000001 -15.234880 37.180572 20.341439 -0.000024 -40.915504 0.000033 55.940393 -0.230830 0.723321 -37.738137 -1.078441 -3.797948 -0.000022 -5.909492 12.473009 -0.000026 -0.000001 0.000010 -7.671660 0.000009 0.000001 -29.422068 7.472574 -13.694061 -0.000001 -40.915504 0.000033 52.798196 0.509502 -0.459432 -14.560073 6.107305 14.915690 -1.547444 0.000003 -0.000003 
24.286444 79.009979 -112.490456 -7.202023 -17.120016 1.398763 -0.000001 12.546096 0.000001 7.844403 -2.582573 0.942095 0.000003 12.308372 -0.000003 7.886182 -2.595894 0.948032 -0.000003 11.703338 -0.000004 7.868203 -2.590156 0.945476 6.667784 9.777296 -0.000010 -12.331560 2.764537 7.251034 -40.237850 -18.432123 -92.015564 23.150330 0.000022 0.000081 64.394907 -106.862093 52.864944 25.491970 0.000013 0.000009 38.236222 -18.324322 14.950772 7.221766 -0.092144 2.290811 3.057419 -0.913869 -84.790132 0.000032 -0.000138 -76.446728 2.520616 0.000027 0.000004 0.000046 -0.000078 -51.400647 7.277754 -0.092154 0.487460 4.255547 9.655136 -93.140025 -0.000049 -0.000196 -82.953938 2.774235 0.000029 0.000019 0.000047 -0.000186 -55.863718 6.277332 -0.092176 -2.805732 9.196286 26.923897 -93.322015 3.178927 0.000013 -0.000002 -0.000268 -0.000205 -75.077173 0.000545 0.000372 -50.464047 6.982746 -0.092197 -1.288443 4.740989 17.829937 -98.499169 0.000058 -0.000101 -83.911374 2.533661 -0.000002 -0.000007 0.000207 0.000026 -56.522312 1.859575 -0.083716 2.492218 63.835296 -40.791696 -4.317823 3.069002 0.000011 1.771871 -4.332123 20.111139 -14.139954 4.087677 20.661030 -22.154188 -0.000013 17.137606 0.000001 6.252925 -3.652522 -4.619618 6.252920 -3.652525 -4.619617 -6.667805 9.777266 0.000001 -7.131605 -0.552830 -8.941817 -61.218139 9.044040 95.981356 -23.150345 0.000002 -0.000009 14.417163 119.501263 -6.993248 -25.491936 -0.000015 -0.000090 34.469287 -0.820468 10.347605 -7.221794 -0.092163 2.290819 -2.151574 1.981447 80.008870 -4.097046 0.000014 0.000006 0.000061 0.000222 76.201306 -2.520614 0.000040 0.000001 0.000469 -0.000188 51.232740 -7.277757 -0.092153 0.487463 -0.756933 -10.569276 90.558903 -4.206056 0.000042 0.000015 -0.000012 0.000144 79.623955 -2.774208 0.000015 0.000006 0.000008 0.000101 53.577104 -6.277317 -0.092189 -2.805730 0.834924 -36.047242 98.206311 -3.178882 -0.000041 0.000006 0.000230 -0.000016 58.533328 -1.998148 0.000045 0.000016 0.000526 -0.000286 39.214964 -6.982795 -0.092161 -1.288472 -0.180067 -23.764076 94.372396 -3.928607 0.000003 0.000009 -0.000108 0.000078 79.519651 -2.533683 -0.000038 -0.000004 -0.000062 0.000062 53.505581 -1.859605 -0.083696 2.492246 33.843061 29.463964 28.273472 -2.234275 -2.130829 7.715850 1.520577 -12.971140 13.316976 7.671666 0.000011 0.000008 -13.524282 34.484129 17.709145 -0.000019 -40.915501 0.000021 53.747281 -0.480576 -0.284369 -34.404903 -2.009975 -3.708524 -0.000020 -5.909505 12.472987 -0.514562 0.000006 0.000012 -7.671655 0.000016 0.000010 -27.724595 6.792224 -14.365650 0.000001 -40.915524 0.000038 50.528872 0.220428 -1.465981 -15.885507 3.789970 14.327044 -0.539059 0.000001 0.000001 
23.734165 79.853989 -112.218529 -6.117961 -14.230634 3.181054 -0.000003 12.546089 -0.000012 7.596235 -2.620776 0.941500 0.000003 12.308356 0.000011 7.634552 -2.633596 0.947103 0.000001 11.703353 0.000013 7.619282 -2.628481 0.944867 6.667792 9.777298 0.000002 -12.708994 2.025881 7.044679 -40.788589 -18.311399 -90.949788 23.150322 0.000016 0.000060 64.269614 -106.671183 52.076531 25.491982 0.000013 -0.000007 36.980280 -18.421362 14.784573 7.221782 -0.092149 2.290834 2.949356 -1.342442 -84.938839 0.000035 -0.000153 -75.927149 2.520612 0.000018 0.000005 0.000059 -0.000086 -51.045204 7.277762 -0.092155 0.487459 4.022238 9.316724 -93.196545 -0.000051 -0.000210 -82.815607 2.774223 0.000029 0.000024 0.000039 -0.000192 -55.768611 6.277353 -0.092165 -2.805733 9.066438 26.521109 -93.372900 3.178927 0.000017 0.000017 -0.000271 -0.000205 -75.084215 0.000562 0.000406 -50.468852 6.982773 -0.092215 -1.288451 4.535768 17.488739 -98.538593 0.000053 -0.000172 -83.980215 2.533680 0.000006 -0.000012 0.000218 -0.000025 -56.569693 1.859588 -0.083730 2.492201 63.794950 -40.693618 -4.057409 3.068994 -0.000006 1.771873 -4.110191 20.017130 -14.496692 4.120412 20.736087 -22.246812 -0.000013 17.137621 -0.000002 6.546752 -4.608225 -4.602857 6.546750 -4.608223 -4.602856 -6.667803 9.777266 -0.000002 -7.438882 -1.049840 -8.655520 -61.592774 9.655221 95.020465 -23.150328 0.000012 -0.000008 13.047613 119.472262 -6.415647 -25.491936 -0.000020 -0.000084 34.655960 -1.976791 10.816516 -7.221802 -0.092151 2.290802 -2.120356 1.758126 80.082281 -4.097042 0.000014 0.000011 0.000061 0.000219 76.069313 -2.520602 0.000024 0.000008 0.000478 -0.000178 51.142476 -7.277776 -0.092158 0.487448 -0.710212 -10.635780 90.616454 -4.206072 0.000016 0.000004 -0.000022 0.000129 79.534110 -2.774200 -0.000000 0.000008 0.000010 0.000095 53.515475 -6.277341 -0.092185 -2.805750 0.892011 -35.908596 98.375522 -3.178917 -0.000010 0.000011 0.000228 -0.000006 58.226441 -1.998140 0.000045 0.000003 0.000517 -0.000284 39.007320 -6.982780 -0.092141 -1.288480 -0.163888 -23.718190 94.437290 -3.928632 -0.000032 0.000004 -0.000108 0.000111 79.346103 -2.533668 -0.000022 0.000011 -0.000054 0.000102 53.386572 -1.859603 -0.083701 2.492230 33.787153 29.514064 28.310919 -2.256727 -2.264771 7.736694 1.532568 -13.020410 13.370318 7.671661 0.000003 -0.000013 -13.618032 32.574173 15.761715 -0.000022 -40.915497 0.000021 52.593160 -0.346209 0.078568 -28.769945 -3.085236 -4.825731 -0.000017 -5.909506 12.473004 -3.547156 0.000010 0.000016 -7.671661 0.000009 -0.000012 -25.920481 6.355857 -16.090355 -0.000003 -40.915520 0.000022 47.766187 0.727442 -1.008778 -15.616807 1.231213 13.246928 0.000018 -0.000001 -0.000000 
